# xmcd
#
# Track frame offsets:
#	150
#	14226
#	28929
#	43886
#	60658
#	74386
#
# Disc length: 1173 seconds
#
# Revision: 1
# Processed by: cddbd v1.5.2PL0 Copyright (c) Steve Scherf et al.
# Submitted via: EZCDAudioConverter 5.5.1.1
#
DISCID=59049306
DTITLE=Higgins Blues Band
DYEAR=1900
DGENRE=Rock - Blues
TTITLE0=I'M READY
TTITLE1=YOU DONTt LOVE ME
TTITLE2=WATCH YOURSELF
TTITLE3=COLD AND LONESAME
TTITLE4=SHE'S TUFF
TTITLE5=COMBINATION BOOGIE
EXTD=
EXTT0=
EXTT1=
EXTT2=
EXTT3=
EXTT4=
EXTT5=
PLAYORDER=
